<svg width="160" height="55" viewBox="0 0 200 45" fill="none" xmlns="http://www.w3.org/2000/svg">
<path d="M18.2184 2.35288C20.6947 0.90008 23.7631 0.900079 26.2394 2.35288L37.5647 8.99726C39.9899 10.4201 41.4797 13.0214 41.4797 15.8331V29.3433C41.4797 32.1551 39.9899 34.7564 37.5647 36.1792L26.2394 42.8236C23.7631 44.2764 20.6947 44.2764 18.2184 42.8236L6.89309 36.1792C4.46789 34.7564 2.97811 32.1551 2.97811 29.3433V15.8331C2.97811 13.0214 4.46789 10.4201 6.89309 8.99727L18.2184 2.35288Z" fill="url(#paint0_linear_2788_133)"/>
<path d="M25.3725 10.2029H24.6082V20.1522H21.1338V14.2164H14.1895V29.3009C14.1895 32.855 16.9617 35.7463 20.3695 35.7463H21.1338V26.3897H24.6082V32.5646H31.5525V16.6482C31.5525 13.0942 28.7802 10.2029 25.3725 10.2029ZM19.6052 34.0866C17.4023 33.7056 15.7181 31.7043 15.7181 29.3009V26.3897H19.6052V34.0866ZM30.0239 30.9704H26.1368V24.7955H15.7181V15.8107H19.6052V21.7464H30.0239V30.9704ZM30.0239 20.1522H26.1368V11.8626C28.3397 12.2435 30.0239 14.2443 30.0239 16.6482V20.1522Z" fill="white"/>
<path d="M 50.037 14.204 L 54.544 14.204 L 54.544 29.979 L 50.037 29.979 L 50.037 14.204 Z" fill="#001042" transform="matrix(1, 0, 0, 1, 3.552713678800501e-15, -3.552713678800501e-15)"/>
  <path d="M 114.138 18.711 L 118.646 18.711 L 118.646 29.979 L 114.138 29.979 L 114.138 18.711 Z" fill="#001042" transform="matrix(1, 0, 0, 1, 3.552713678800501e-15, -3.552713678800501e-15)"/>
  <path d="M 124.28 17.584 L 108.504 17.584 L 108.504 14.204 L 124.28 14.204 L 124.28 17.584 Z" fill="#001042" transform="matrix(1, 0, 0, 1, 3.552713678800501e-15, -3.552713678800501e-15)"/>
  <path d="M 100.617 29.979 L 89.349 29.979 L 89.349 26.599 L 100.617 26.599 C 101.368 26.599 101.743 25.472 101.743 25.472 C 101.743 24.721 101.368 24.345 100.617 24.345 L 98.363 24.345 L 98.363 20.965 L 100.617 20.965 C 104.373 20.965 106.251 22.467 106.251 25.472 C 106.251 28.477 104.373 29.979 100.617 29.979 Z" fill="#001042" transform="matrix(1, 0, 0, 1, 3.552713678800501e-15, -3.552713678800501e-15)"/>
  <path d="M 94.983 14.204 L 106.251 14.204 L 106.251 17.584 L 94.983 17.584 C 94.231 17.584 93.856 17.96 93.856 18.711 L 93.856 19.838 C 93.856 20.589 94.231 20.965 94.983 20.965 L 97.236 20.965 L 97.108 24.473 L 94.983 24.345 C 91.227 24.345 89.349 22.843 89.349 19.838 L 89.349 18.711 C 89.349 15.706 91.227 14.204 94.983 14.204 Z" fill="#001042" transform="matrix(1, 0, 0, 1, 3.552713678800501e-15, -3.552713678800501e-15)"/>
  <path d="M 74.7 25.472 C 74.7 26.223 75.076 26.599 75.827 26.599 L 75.827 29.979 C 72.071 29.979 70.193 28.477 70.193 25.472 L 70.193 18.711 C 70.193 15.706 72.071 14.204 75.827 14.204 L 80.334 14.204 L 80.334 17.584 L 75.827 17.584 C 75.076 17.584 74.7 18.711 74.7 18.711 L 74.7 25.472 Z" fill="#001042" transform="matrix(1, 0, 0, 1, 3.552713678800501e-15, -3.552713678800501e-15)"/>
  <path d="M 82.588 18.711 C 82.588 17.96 82.212 17.584 81.461 17.584 L 81.461 14.204 C 85.217 14.204 87.095 15.706 87.095 18.711 L 87.095 25.472 C 87.095 28.477 85.217 29.979 81.461 29.979 L 76.954 29.979 L 76.954 26.599 L 81.461 26.599 C 82.212 26.599 82.588 26.223 82.588 25.472 L 82.588 18.711 Z" fill="#001042" transform="matrix(1, 0, 0, 1, 3.552713678800501e-15, -3.552713678800501e-15)"/>
  <path d="M 61.432 24.345 L 56.925 24.345 L 54.671 20.965 L 61.432 20.965 L 61.432 14.204 L 65.939 14.204 L 65.939 29.979 L 61.432 29.979 L 61.432 24.345 Z" fill="#001042" transform="matrix(1, 0, 0, 1, 3.552713678800501e-15, -3.552713678800501e-15)"/>
  <path d="M 145.978 14.244 L 149.564 14.244 L 149.564 30.019 L 145.978 30.019 L 145.978 14.244 Z" fill="#001042" style="" transform="matrix(1, 0, 0, 1, 3.552713678800501e-15, -3.552713678800501e-15)"/>
  <path d="M 158.349 17.528 L 147.485 17.528 L 147.485 14.148 L 158.349 14.148 L 158.349 17.528 Z" fill="#001042" style="" transform="matrix(1, 0, 0, 1, 3.552713678800501e-15, -3.552713678800501e-15)"/>
  <path d="M 156.201 23.669 L 149.022 23.669 L 149.022 20.289 L 156.201 20.289 L 156.201 23.669 Z" fill="#001042" style="" transform="matrix(1, 0, 0, 1, 3.552713678800501e-15, -3.552713678800501e-15)"/>
  <path d="M 158.504 30.117 L 147.025 30.117 L 147.025 26.737 L 158.504 26.737 L 158.504 30.117 Z" fill="#001042" style="" transform="matrix(1, 0, 0, 1, 3.552713678800501e-15, -3.552713678800501e-15)"/>
  <path d="M 162.179 14.245 L 166.686 14.245 L 166.686 30.02 L 162.179 30.02 L 162.179 14.245 Z" fill="#001042" style="transform-origin: 164.433px 24.7425px;"/>
  <path d="M 174.307 14.091 L 178.814 14.091 L 178.814 29.866 L 174.307 29.866 L 174.307 14.091 Z" fill="#001042" style="transform-origin: 176.561px 24.589px;"/>
  <path d="M 175.014 22.879 L 157.975 22.879 L 157.975 21.612 L 157.975 19.499 L 175.014 19.499 L 175.014 22.879 Z" fill="#001042" style="transform-origin: 167.655px 25.4878px;" transform="matrix(0.60789513588, 0.794017910957, -0.794017910957, 0.607895135879, -0.000004026051, -0.000013594313)"/>
  <path d="M 183.035 14.244 L 187.542 14.244 L 187.542 30.019 L 183.035 30.019 L 183.035 14.244 Z" fill="#001042" transform="matrix(1, 0, 0, 1, 3.552713678800501e-15, -3.552713678800501e-15)"/>
  <path d="M 194.242 25.616 C 194.471 26.392 195.572 26.38 195.572 26.38 C 195.902 26.421 196.208 26.482 196.497 26.491 C 200.788 26.622 201.406 26.179 201.459 26.677 C 201.793 29.841 201.275 29.571 201.215 29.571 L 200.66 29.349 L 201.365 29.743 C 201.365 29.743 201.275 30.238 194.097 29.993 C 192.026 29.922 190.41 28.205 190.35 25.163 L 190.35 18.53 C 190.35 15.582 192.228 14.108 195.984 14.108 L 201.441 14.269 C 201.893 14.269 201.405 17.578 200.645 17.578 L 195.984 17.424 C 195.233 17.424 194.089 17.944 194.089 18.681 C 194.089 18.681 193.585 23.395 194.242 25.616 Z" fill="#001042" style="" transform="matrix(1, 0, 0, 1, 3.552713678800501e-15, -3.552713678800501e-15)"/>
  <path d="M 138.549 30.253 L 130.816 30.253 L 132.101 26.733 C 132 26.733 132.203 26.201 133.146 26.996 C 134.198 27.883 133.603 26.572 133.716 26.572 L 138.549 26.572 C 139.065 26.572 139.322 25.344 139.322 25.344 C 139.322 24.526 139.065 24.116 138.549 24.116 L 135.717 23.795 L 134.432 20.435 L 138.549 20.435 C 142.081 20.295 143.137 20.734 142.416 25.344 C 141.695 29.954 141.127 30.253 138.549 30.253 Z" fill="#001042" style="" transform="matrix(1, 0, 0, 1, 3.552713678800501e-15, -3.552713678800501e-15)"/>
  <path d="M 129.833 25.749 C 130.062 26.525 131.163 26.513 131.163 26.513 C 131.493 26.554 131.799 26.615 132.088 26.624 C 136.379 26.755 136.515 26.312 136.568 26.81 C 136.902 29.974 136.866 29.704 136.806 29.704 L 134.644 29.321 L 136.795 29.715 C 136.795 29.715 136.866 30.371 129.688 30.126 C 127.617 30.055 126.001 28.338 125.941 25.296 L 125.941 18.663 C 125.941 15.715 127.819 14.241 131.575 14.241 L 142.012 14.241 C 142.464 14.241 139.888 17.55 139.128 17.55 L 131.575 17.557 C 130.824 17.557 129.68 18.077 129.68 18.814 C 129.68 18.814 129.176 23.528 129.833 25.749 Z" fill="#001042" style="" transform="matrix(1, 0, 0, 1, 3.552713678800501e-15, -3.552713678800501e-15)"/>
  <path d="M 209.25 14.166 L 220.036 14.166 L 219.393 17.546 L 209.25 17.546 C 208.498 17.546 208.123 17.922 208.123 18.673 L 208.123 19.8 C 208.123 20.551 208.498 20.927 209.25 20.927 L 211.503 20.927 L 211.375 24.435 L 209.25 24.307 C 205.494 24.307 203.616 22.805 203.616 19.8 L 203.616 18.673 C 203.616 15.668 205.494 14.166 209.25 14.166 Z" fill="#001042" transform="matrix(1, 0, 0, 1, 3.552713678800501e-15, -3.552713678800501e-15)"/>
  <path d="M 214.724 29.913 L 204.099 29.913 L 204.902 26.533 L 214.724 26.533 C 215.475 26.533 215.85 25.406 215.85 25.406 C 215.85 24.655 215.475 24.279 214.724 24.279 L 212.47 24.279 L 212.47 20.899 L 214.724 20.899 C 218.48 20.899 220.358 22.401 220.358 25.406 C 220.358 28.411 218.48 29.913 214.724 29.913 Z" fill="#001042" transform="matrix(1, 0, 0, 1, 3.552713678800501e-15, -3.552713678800501e-15)"/>
<defs>
<linearGradient id="paint0_linear_2788_133" x1="-3.10516e-07" y1="3.3056" x2="47.1144" y2="7.73226" gradientUnits="userSpaceOnUse">
<stop stop-color="#0082F8"/>
<stop offset="1" stop-color="#1C40F2"/>
</linearGradient>
</defs>
</svg>
